<svg width="16" height="10" viewBox="0 0 16 10" fill="none" xmlns="http://www.w3.org/2000/svg">
<path fill-rule="evenodd" clip-rule="evenodd" d="M8 9.57145C4 9.57145 0 5.00002 0 5.00002C0 5.00002 4.57143 0.428589 8 0.428589C12 0.428589 16 5.00002 16 5.00002C16 5.00002 12 9.57145 8 9.57145ZM3.10604 6.4903C2.41894 5.96679 1.84035 5.44125 1.42649 5.03824L1.43222 5.03314C1.89735 4.61969 2.55005 4.07025 3.30246 3.52304C4.05769 2.97378 4.89477 2.44044 5.72937 2.04769C6.57444 1.65001 7.34991 1.42859 8 1.42859C9.65821 1.42859 11.4351 2.39823 12.894 3.50973C13.603 4.04996 14.1965 4.59235 14.6126 5.00002C14.1965 5.40769 13.603 5.95008 12.894 6.4903C11.4351 7.6018 9.65821 8.57145 8 8.57145C6.34179 8.57145 4.56489 7.6018 3.10604 6.4903ZM8 6.99988C9.10457 6.99988 10 6.10445 10 4.99988C10 3.89531 9.10457 2.99988 8 2.99988C6.89543 2.99988 6 3.89531 6 4.99988C6 6.10445 6.89543 6.99988 8 6.99988Z" fill="#52585C"/>
</svg>
