<svg width="170" height="34" viewBox="0 0 170 34" fill="none" xmlns="http://www.w3.org/2000/svg">
<path d="M23.52 15.4C23.52 11.88 20.64 9 17.088 9C15.168 9 13.44 9.832 12.256 11.208C11.072 9.832 9.344 9 7.424 9C3.872 9 0.992 11.88 0.992 15.4V23.464C0.992 24.36 1.696 25.064 2.592 25.064C3.456 25.064 4.16 24.36 4.16 23.464V15.4C4.16 13.608 5.632 12.168 7.424 12.168C9.216 12.168 10.656 13.608 10.656 15.4V23.464C10.656 24.36 11.392 25.064 12.256 25.064C13.12 25.064 13.824 24.36 13.824 23.464V15.4C13.824 13.608 15.296 12.168 17.088 12.168C18.88 12.168 20.352 13.608 20.352 15.4C20.352 15.464 20.352 15.496 20.352 15.528C20.352 15.592 20.352 15.624 20.352 15.688V23.464C20.352 24.36 21.056 25.064 21.92 25.064C22.784 25.064 23.52 24.36 23.52 23.464V15.688C23.52 15.624 23.52 15.592 23.488 15.528C23.52 15.496 23.52 15.464 23.52 15.4ZM34.801 9C30.289 9 26.705 12.584 26.705 17.096C26.705 21.608 30.289 24.968 34.801 24.968C36.625 24.968 38.161 24.52 39.537 23.368C39.537 24.296 40.433 24.968 41.073 24.968C42.001 24.968 42.673 24.296 42.673 23.368V17.096C42.673 12.584 39.313 9 34.801 9ZM34.801 21.832C32.113 21.832 29.841 19.784 29.841 17.096C29.841 14.408 32.113 12.136 34.801 12.136C37.489 12.136 39.537 14.408 39.537 17.096C39.537 19.784 37.489 21.832 34.801 21.832ZM53.2405 8.936H50.4245C50.4245 7.496 50.8725 6.248 51.8325 5.288C52.3765 4.744 52.9845 4.36 53.6565 4.136C54.4885 3.848 54.9045 2.92 54.6165 2.12C54.3285 1.288 53.4005 0.839998 52.6005 1.16C51.4485 1.544 50.4565 2.184 49.5925 3.048C48.0565 4.584 47.2245 6.664 47.2565 8.936H45.4965C44.6325 8.936 43.9285 9.64 43.9285 10.504C43.9285 11.4 44.6325 12.104 45.4965 12.104H47.2565V23.4C47.2565 24.296 47.9605 25 48.8245 25C49.7205 25 50.4245 24.296 50.4245 23.4V12.104H53.2405C54.1365 12.104 54.8405 11.4 54.8405 10.504C54.8405 9.64 54.1365 8.936 53.2405 8.936ZM59.557 25.032C60.421 25.032 61.125 24.328 61.125 23.432V10.536C61.125 9.672 60.421 8.968 59.557 8.968C58.661 8.968 57.957 9.672 57.957 10.536V23.432C57.957 24.328 58.661 25.032 59.557 25.032ZM59.557 5.768C59.973 5.768 60.389 5.608 60.677 5.32C60.965 5.032 61.125 4.616 61.125 4.2C61.125 3.784 60.965 3.368 60.677 3.08C60.389 2.792 59.973 2.6 59.557 2.6C59.141 2.6 58.725 2.792 58.437 3.08C58.149 3.368 57.957 3.784 57.957 4.2C57.957 4.616 58.149 5.032 58.437 5.32C58.725 5.608 59.141 5.768 59.557 5.768ZM72.4535 9C67.9415 9 64.3575 12.584 64.3575 17.096C64.3575 21.608 67.9415 24.968 72.4535 24.968C74.2775 24.968 75.8135 24.52 77.1895 23.368C77.1895 24.296 78.0855 24.968 78.7255 24.968C79.6535 24.968 80.3255 24.296 80.3255 23.368V17.096C80.3255 12.584 76.9655 9 72.4535 9ZM72.4535 21.832C69.7655 21.832 67.4935 19.784 67.4935 17.096C67.4935 14.408 69.7655 12.136 72.4535 12.136C75.1415 12.136 77.1895 14.408 77.1895 17.096C77.1895 19.784 75.1415 21.832 72.4535 21.832ZM105.951 16.968C105.951 12.52 102.335 8.936 97.919 8.936C93.471 8.936 89.887 12.52 89.887 16.968C89.887 21.384 93.471 25 97.919 25C99.743 25 101.407 24.36 102.783 23.336C102.783 25.032 102.783 25.064 102.783 25.096C102.719 27.72 100.575 29.864 97.919 29.864C96.031 29.864 94.367 28.808 93.535 27.112C93.151 26.344 92.191 26.024 91.423 26.408C90.623 26.792 90.303 27.72 90.687 28.52C92.063 31.304 94.815 33.032 97.919 33.032C102.335 33.032 105.951 29.416 105.951 25C105.951 16.968 105.951 16.968 105.951 16.968ZM97.919 21.832C95.231 21.832 93.055 19.624 93.055 16.968C93.055 14.28 95.231 12.104 97.919 12.104C100.575 12.104 102.783 14.28 102.783 16.968C102.783 19.624 100.575 21.832 97.919 21.832ZM117.231 9C112.719 9 109.135 12.584 109.135 17.096C109.135 21.608 112.719 24.968 117.231 24.968C119.055 24.968 120.591 24.52 121.967 23.368C121.967 24.296 122.863 24.968 123.503 24.968C124.431 24.968 125.103 24.296 125.103 23.368V17.096C125.103 12.584 121.743 9 117.231 9ZM117.231 21.832C114.543 21.832 112.271 19.784 112.271 17.096C112.271 14.408 114.543 12.136 117.231 12.136C119.919 12.136 121.967 14.408 121.967 17.096C121.967 19.784 119.919 21.832 117.231 21.832ZM150.76 15.4C150.76 11.88 147.88 9 144.328 9C142.408 9 140.68 9.832 139.496 11.208C138.312 9.832 136.584 9 134.664 9C131.112 9 128.232 11.88 128.232 15.4V23.464C128.232 24.36 128.936 25.064 129.832 25.064C130.696 25.064 131.4 24.36 131.4 23.464V15.4C131.4 13.608 132.872 12.168 134.664 12.168C136.456 12.168 137.896 13.608 137.896 15.4V23.464C137.896 24.36 138.632 25.064 139.496 25.064C140.36 25.064 141.064 24.36 141.064 23.464V15.4C141.064 13.608 142.536 12.168 144.328 12.168C146.12 12.168 147.592 13.608 147.592 15.4C147.592 15.464 147.592 15.496 147.592 15.528C147.592 15.592 147.592 15.624 147.592 15.688V23.464C147.592 24.36 148.296 25.064 149.16 25.064C150.024 25.064 150.76 24.36 150.76 23.464V15.688C150.76 15.624 150.76 15.592 150.728 15.528C150.76 15.496 150.76 15.464 150.76 15.4ZM161.963 8.936C157.515 8.936 153.931 12.52 153.931 16.968C153.931 21.384 157.515 25 161.963 25C163.147 25 164.779 25.032 166.891 23.624C167.627 23.144 168.043 22.312 167.659 21.512C167.275 20.744 166.283 20.296 165.547 20.776C164.011 21.768 162.699 21.832 161.963 21.832C159.819 21.832 158.027 20.456 157.355 18.536H168.395C169.291 18.536 169.995 17.832 169.995 16.968C169.995 11.752 165.835 8.936 161.963 8.936ZM161.963 12.104C163.883 12.104 165.931 13.128 166.603 15.368H157.355C158.027 13.48 159.819 12.104 161.963 12.104Z" fill="white"/>
<path d="M85.1185 25C85.5345 25 85.9505 24.84 86.2385 24.52C86.5585 24.232 86.7185 23.816 86.7185 23.4C86.7185 22.984 86.5585 22.6 86.2385 22.28C85.9505 21.992 85.5345 21.832 85.1185 21.832C84.7025 21.832 84.3185 21.992 83.9985 22.28C83.7105 22.6 83.5505 22.984 83.5505 23.4C83.5505 23.816 83.7105 24.232 83.9985 24.52C84.3185 24.84 84.7025 25 85.1185 25Z" fill="#F93225"/>
</svg>
