<svg width="24" height="24" viewBox="0 0 24 24" fill="none" xmlns="http://www.w3.org/2000/svg">
<path d="M15 19H13.5V17.5714C13.5 17.0031 13.2629 16.4581 12.841 16.0562C12.419 15.6543 11.8467 15.4286 11.25 15.4286H6.75C6.15326 15.4286 5.58097 15.6543 5.15901 16.0562C4.73705 16.4581 4.5 17.0031 4.5 17.5714V19H3V17.5714C3 16.6242 3.39509 15.7158 4.09835 15.046C4.80161 14.3763 5.75544 14 6.75 14H11.25C12.2446 14 13.1984 14.3763 13.9017 15.046C14.6049 15.7158 15 16.6242 15 17.5714V19ZM9 12.5714C8.40905 12.5714 7.82389 12.4606 7.27792 12.2452C6.73196 12.0298 6.23588 11.7141 5.81802 11.3162C5.40016 10.9182 5.06869 10.4458 4.84254 9.92579C4.6164 9.40582 4.5 8.84852 4.5 8.28571C4.5 7.72291 4.6164 7.16561 4.84254 6.64564C5.06869 6.12568 5.40016 5.65322 5.81802 5.25526C6.23588 4.85729 6.73196 4.54161 7.27792 4.32623C7.82389 4.11085 8.40905 4 9 4C10.1935 4 11.3381 4.45153 12.182 5.25526C13.0259 6.05898 13.5 7.14907 13.5 8.28571C13.5 9.42236 13.0259 10.5124 12.182 11.3162C11.3381 12.1199 10.1935 12.5714 9 12.5714ZM9 11.1429C9.79565 11.1429 10.5587 10.8418 11.1213 10.306C11.6839 9.7702 12 9.04348 12 8.28571C12 7.52795 11.6839 6.80123 11.1213 6.26541C10.5587 5.72959 9.79565 5.42857 9 5.42857C8.20435 5.42857 7.44129 5.72959 6.87868 6.26541C6.31607 6.80123 6 7.52795 6 8.28571C6 9.04348 6.31607 9.7702 6.87868 10.306C7.44129 10.8418 8.20435 11.1429 9 11.1429Z" fill="#F7A900"/>
<rect x="18" y="16" width="8" height="2" transform="rotate(-90 18 16)" fill="#F7A900"/>
<rect x="15" y="11" width="8" height="2" fill="#F7A900"/>
</svg>
