<svg width="24" height="24" viewBox="0 0 24 24" fill="none" xmlns="http://www.w3.org/2000/svg">
<path fill-rule="evenodd" clip-rule="evenodd" d="M8.35986 6.6C8.76986 5.74 9.49986 5.01 11.0699 5C11.5099 5 11.9999 5.06 12.5799 5.2L14.9499 5.76C13.3399 6.07 11.1799 6.51 10.1799 6.8C9.68986 6.95 9.31986 7 9.05986 7C8.72986 6.99 8.56986 6.92 8.48986 6.85C8.38639 6.76534 8.3714 6.67184 8.36167 6.6111L8.35986 6.6ZM17 6.22998C17.19 6.27998 17.33 6.42998 17.37 6.61998L18.37 12.06C15.86 13.67 11.8 13.86 11 13.87H10.67C7.44004 13.86 6.70004 12.84 6.54004 12.55C7.00004 11.04 7.68004 8.76998 8.03004 7.53998C8.31004 7.72998 8.65004 7.82998 9.06004 7.82998C9.45004 7.82998 9.90004 7.74998 10.42 7.59998C11.9 7.15998 16.39 6.32998 16.98 6.22998H17ZM6.30978 13.6602C6.48978 14.0002 7.25979 14.9802 10.3798 15.0502H10.6898C11.3398 15.0502 12.0298 15.0002 12.8498 14.9002C14.4498 14.7002 15.7998 14.4402 16.7998 14.1402C17.7398 13.8702 18.3598 13.5502 18.5798 13.2902L18.5298 12.9302C15.7698 14.5102 11.8398 14.6802 11.0198 14.7002H10.6698C8.15979 14.7002 6.89979 14.0902 6.27979 13.5202L6.30978 13.6602ZM4.1 17.2899C5.08 17.8299 7.12 18.3799 8.28 18.4399C23.67 18.9699 21.21 12.4899 19.24 12.0999L19.33 12.5699C19.33 12.5699 19.45 13.4999 19.1 13.7599C19.1 13.7599 18.33 14.7599 14.62 15.4999C14.06 15.5999 13.5 15.6799 12.96 15.7499C12.1 15.8599 11.37 15.9099 10.68 15.9099H10.36C7.05 15.8299 5.92 14.7599 5.56 14.0599C5.47 13.8899 5.42 13.6999 5.42 13.5099C5.42 13.3899 5.44 13.2699 5.47 13.1599C5.61167 12.6935 5.81607 12.0112 6.04205 11.2567C6.19889 10.7331 6.36612 10.1748 6.53 9.62988C5.94 9.77988 5.05 10.0699 4.2 10.5699C3.18 11.1699 2.26 12.0699 2.04 13.3899C2.01 13.5699 2 13.7499 2 13.9299C2 15.2599 2.79 16.5599 4.1 17.2899Z" fill="#00A857"/>
</svg>
